<svg id="Layer_1" data-name="Layer 1" xmlns="http://www.w3.org/2000/svg" xmlns:xlink="http://www.w3.org/1999/xlink" viewBox="0 0 500 500"><defs><style>.cls-1{fill:url(#linear-gradient);}.cls-2{fill:url(#linear-gradient-2);}.cls-3{fill:url(#linear-gradient-3);}.cls-4{fill:url(#linear-gradient-4);}.cls-5{fill:url(#linear-gradient-5);}.cls-6{fill:url(#linear-gradient-6);}.cls-7{fill:url(#linear-gradient-7);}.cls-8{fill:url(#linear-gradient-8);}.cls-9{fill:url(#linear-gradient-9);}.cls-10{fill:url(#linear-gradient-10);}.cls-11{fill:url(#linear-gradient-11);}.cls-12{fill:url(#linear-gradient-12);}.cls-13{fill:url(#linear-gradient-13);}.cls-14{fill:url(#linear-gradient-14);}.cls-15{fill:url(#linear-gradient-15);}.cls-16{fill:url(#linear-gradient-16);}.cls-17{fill:url(#linear-gradient-17);}.cls-18{fill:url(#linear-gradient-18);}.cls-19{fill:url(#linear-gradient-19);}.cls-20{fill:url(#linear-gradient-20);}.cls-21{fill:url(#linear-gradient-21);}.cls-22{fill:url(#linear-gradient-22);}.cls-23{fill:#0c1629;stroke:#51c1b5;stroke-miterlimit:10;stroke-width:7px;}.cls-24{fill:#fffeff;}.cls-25{fill:#fff;}.cls-26{fill:#203669;}.cls-27{mask:url(#mask);}.cls-28{mask:url(#mask-2);}.cls-29{mask:url(#mask-3);}.cls-30{mask:url(#mask-4);}.cls-31{mask:url(#mask-5);}.cls-32{mask:url(#mask-6);}.cls-33{mask:url(#mask-7);}.cls-34{mask:url(#mask-8);}.cls-35{mask:url(#mask-9);}.cls-36{mask:url(#mask-10);}.cls-37{mask:url(#mask-11);}.cls-38{mask:url(#mask-12);}.cls-39{mask:url(#mask-13);}.cls-40{mask:url(#mask-14);}.cls-41{mask:url(#mask-15);}.cls-42{mask:url(#mask-16);}.cls-43{mask:url(#mask-17);}.cls-44{mask:url(#mask-18);}.cls-45{mask:url(#mask-19);}.cls-46{mask:url(#mask-20);}.cls-47{mask:url(#mask-21);}.cls-48{mask:url(#mask-22);}</style><linearGradient id="linear-gradient" x1="92.22" y1="141.83" x2="163.87" y2="141.83" gradientTransform="translate(54.27 -49.45)" gradientUnits="userSpaceOnUse"><stop offset="0" stop-color="#fff"/><stop offset="1"/></linearGradient><linearGradient id="linear-gradient-2" x1="92.95" y1="154.95" x2="148.31" y2="154.95" gradientTransform="translate(74.8 -55.15)" xlink:href="#linear-gradient"/><linearGradient id="linear-gradient-3" x1="78.08" y1="275.56" x2="178.27" y2="275.56" gradientTransform="translate(187.87 -183.3)" xlink:href="#linear-gradient"/><linearGradient id="linear-gradient-4" x1="-27.33" y1="-616.77" x2="44.32" y2="-616.77" gradientTransform="translate(307.55 1025.95)" xlink:href="#linear-gradient"/><linearGradient id="linear-gradient-5" x1="-26.6" y1="-603.65" x2="28.76" y2="-603.65" gradientTransform="translate(301.85 1005.42)" xlink:href="#linear-gradient"/><linearGradient id="linear-gradient-6" x1="-28.2" y1="-590.39" x2="54.35" y2="-590.39" gradientTransform="translate(276.59 1004.15)" xlink:href="#linear-gradient"/><linearGradient id="linear-gradient-7" x1="-29.8" y1="-576.54" x2="36.03" y2="-576.54" gradientTransform="translate(272.7 980.34)" xlink:href="#linear-gradient"/><linearGradient id="linear-gradient-8" x1="-29.8" y1="-563.42" x2="44.32" y2="-563.42" gradientTransform="translate(255.44 971.37)" xlink:href="#linear-gradient"/><linearGradient id="linear-gradient-9" x1="-29.8" y1="-550.08" x2="23.67" y2="-550.08" gradientTransform="translate(252.43 947.71)" xlink:href="#linear-gradient"/><linearGradient id="linear-gradient-10" x1="-32.28" y1="-536.38" x2="48.54" y2="-536.38" gradientTransform="translate(227.53 945.2)" xlink:href="#linear-gradient"/><linearGradient id="linear-gradient-11" x1="-34.75" y1="-522.83" x2="35.16" y2="-522.83" gradientTransform="translate(221.9 923.72)" xlink:href="#linear-gradient"/><linearGradient id="linear-gradient-12" x1="-38.02" y1="-509.57" x2="50.86" y2="-509.57" gradientTransform="translate(202.42 916.68)" xlink:href="#linear-gradient"/><linearGradient id="linear-gradient-13" x1="91.35" y1="168.21" x2="173.91" y2="168.21" gradientTransform="translate(76.07 -80.41)" xlink:href="#linear-gradient"/><linearGradient id="linear-gradient-14" x1="-39.04" y1="-496.31" x2="37.77" y2="-496.31" gradientTransform="translate(196.21 896.36)" xlink:href="#linear-gradient"/><linearGradient id="linear-gradient-15" x1="-41.47" y1="-483.04" x2="58.72" y2="-483.04" gradientTransform="translate(173.7 892.35)" xlink:href="#linear-gradient"/><linearGradient id="linear-gradient-16" x1="89.75" y1="182.06" x2="155.58" y2="182.06" gradientTransform="translate(99.88 -84.29)" xlink:href="#linear-gradient"/><linearGradient id="linear-gradient-17" x1="89.75" y1="195.17" x2="163.87" y2="195.17" gradientTransform="translate(108.85 -101.55)" xlink:href="#linear-gradient"/><linearGradient id="linear-gradient-18" x1="89.75" y1="208.51" x2="143.22" y2="208.51" gradientTransform="translate(132.51 -104.57)" xlink:href="#linear-gradient"/><linearGradient id="linear-gradient-19" x1="87.28" y1="222.21" x2="168.09" y2="222.21" gradientTransform="translate(135.02 -129.47)" xlink:href="#linear-gradient"/><linearGradient id="linear-gradient-20" x1="84.81" y1="235.77" x2="154.71" y2="235.77" gradientTransform="translate(156.5 -135.09)" xlink:href="#linear-gradient"/><linearGradient id="linear-gradient-21" x1="81.53" y1="249.03" x2="170.42" y2="249.03" gradientTransform="translate(163.54 -154.57)" xlink:href="#linear-gradient"/><linearGradient id="linear-gradient-22" x1="80.52" y1="262.29" x2="157.33" y2="262.29" gradientTransform="translate(183.86 -160.78)" xlink:href="#linear-gradient"/><mask id="mask" x="180.06" y="56.56" width="4.52" height="71.65" maskUnits="userSpaceOnUse"><rect class="cls-1" x="146.49" y="90.12" width="71.65" height="4.52" transform="translate(89.94 274.7) rotate(-90)"/></mask><mask id="mask-2" x="193.18" y="72.12" width="4.52" height="55.36" maskUnits="userSpaceOnUse"><rect class="cls-2" x="167.76" y="97.54" width="55.36" height="4.52" transform="translate(95.64 295.24) rotate(-90)"/></mask><mask id="mask-3" x="206.44" y="46.52" width="4.52" height="82.56" maskUnits="userSpaceOnUse"><rect class="cls-13" x="167.42" y="85.54" width="82.56" height="4.52" transform="translate(120.9 296.5) rotate(-90)"/></mask><mask id="mask-4" x="220.28" y="64.85" width="4.52" height="65.83" maskUnits="userSpaceOnUse"><rect class="cls-16" x="189.63" y="95.51" width="65.83" height="4.52" transform="translate(124.78 320.31) rotate(-90)"/></mask><mask id="mask-5" x="233.4" y="56.56" width="4.52" height="74.12" maskUnits="userSpaceOnUse"><rect class="cls-17" x="198.6" y="91.36" width="74.12" height="4.52" transform="translate(142.04 329.28) rotate(-90)"/></mask><mask id="mask-6" x="246.74" y="77.21" width="4.52" height="53.47" maskUnits="userSpaceOnUse"><rect class="cls-18" x="222.27" y="101.69" width="53.47" height="4.52" transform="translate(145.06 352.95) rotate(-90)"/></mask><mask id="mask-7" x="260.44" y="52.34" width="4.52" height="80.81" maskUnits="userSpaceOnUse"><rect class="cls-19" x="222.29" y="90.49" width="80.81" height="4.52" transform="translate(169.95 355.45) rotate(-90)"/></mask><mask id="mask-8" x="274" y="65.72" width="4.52" height="69.9" maskUnits="userSpaceOnUse"><rect class="cls-20" x="241.3" y="98.41" width="69.9" height="4.52" transform="translate(175.58 376.93) rotate(-90)"/></mask><mask id="mask-9" x="287.26" y="50.01" width="4.52" height="88.88" maskUnits="userSpaceOnUse"><rect class="cls-21" x="245.08" y="92.2" width="88.88" height="4.52" transform="translate(195.06 383.97) rotate(-90)"/></mask><mask id="mask-10" x="300.52" y="63.1" width="4.52" height="76.81" maskUnits="userSpaceOnUse"><rect class="cls-22" x="264.37" y="99.25" width="76.81" height="4.52" transform="translate(201.27 404.29) rotate(-90)"/></mask><mask id="mask-11" x="313.78" y="42.16" width="4.52" height="100.19" maskUnits="userSpaceOnUse"><rect class="cls-3" x="265.95" y="90" width="100.19" height="4.52" transform="translate(223.79 408.3) rotate(-90)"/></mask><mask id="mask-12" x="313.78" y="373.36" width="4.52" height="71.65" maskUnits="userSpaceOnUse"><rect class="cls-4" x="280.22" y="406.92" width="71.65" height="4.52" transform="matrix(0, 1, -1, 0, 725.23, 93.14)"/></mask><mask id="mask-13" x="300.67" y="374.09" width="4.52" height="55.36" maskUnits="userSpaceOnUse"><rect class="cls-5" x="275.24" y="399.51" width="55.36" height="4.52" transform="matrix(0, 1, -1, 0, 704.69, 98.84)"/></mask><mask id="mask-14" x="287.4" y="372.49" width="4.52" height="82.56" maskUnits="userSpaceOnUse"><rect class="cls-6" x="248.38" y="411.51" width="82.56" height="4.52" transform="matrix(0, 1, -1, 0, 703.43, 124.1)"/></mask><mask id="mask-15" x="273.56" y="370.89" width="4.52" height="65.83" maskUnits="userSpaceOnUse"><rect class="cls-7" x="242.9" y="401.54" width="65.83" height="4.52" transform="matrix(0, 1, -1, 0, 679.62, 127.99)"/></mask><mask id="mask-16" x="260.44" y="370.89" width="4.52" height="74.12" maskUnits="userSpaceOnUse"><rect class="cls-8" x="225.64" y="405.69" width="74.12" height="4.52" transform="matrix(0, 1, -1, 0, 670.65, 145.25)"/></mask><mask id="mask-17" x="247.1" y="370.89" width="4.52" height="53.47" maskUnits="userSpaceOnUse"><rect class="cls-9" x="222.62" y="395.36" width="53.47" height="4.52" transform="matrix(0, 1, -1, 0, 646.98, 148.26)"/></mask><mask id="mask-18" x="233.4" y="368.41" width="4.52" height="80.81" maskUnits="userSpaceOnUse"><rect class="cls-10" x="195.25" y="406.56" width="80.81" height="4.52" transform="matrix(0, 1, -1, 0, 644.48, 173.16)"/></mask><mask id="mask-19" x="219.85" y="365.94" width="4.52" height="69.9" maskUnits="userSpaceOnUse"><rect class="cls-11" x="187.15" y="398.63" width="69.9" height="4.52" transform="matrix(0, 1, -1, 0, 623, 178.79)"/></mask><mask id="mask-20" x="206.58" y="362.67" width="4.52" height="88.88" maskUnits="userSpaceOnUse"><rect class="cls-12" x="164.4" y="404.85" width="88.88" height="4.52" transform="matrix(0, 1, -1, 0, 615.96, 198.27)"/></mask><mask id="mask-21" x="193.32" y="361.65" width="4.52" height="76.81" maskUnits="userSpaceOnUse"><rect class="cls-14" x="157.18" y="397.8" width="76.81" height="4.52" transform="matrix(0, 1, -1, 0, 595.64, 204.48)"/></mask><mask id="mask-22" x="180.06" y="359.22" width="4.52" height="100.19" maskUnits="userSpaceOnUse"><rect class="cls-15" x="132.22" y="407.05" width="100.19" height="4.52" transform="matrix(0, 1, -1, 0, 591.63, 226.99)"/></mask></defs><ellipse class="cls-23" cx="250" cy="250" rx="243.76" ry="243.24"/><circle class="cls-24" cx="250" cy="249.67" r="219.21"/><path class="cls-25" d="M269.31,242.82a4.9,4.9,0,0,0-4.83,4.8v14.91h4.83V247.86a.23.23,0,0,1,.07-.14.21.21,0,0,1,.14-.08h10.72v-4.82Z"/><path d="M170,247.64v-4.82h-7.53v-5.95h-4.84v20.88a4.91,4.91,0,0,0,2.41,4.13,4.63,4.63,0,0,0,2.43.65H170v-4.81h-7.33a.19.19,0,0,1-.13-.08.19.19,0,0,1-.07-.14v-9.86Z"/><path d="M162.47,247.64v9.86a.19.19,0,0,0,.07.14.19.19,0,0,0,.13.08H170v4.81H157.63V236.87h4.84v5.95H170v4.82Z"/><path d="M240.53,242.82a4.92,4.92,0,0,1,4.84,4.8v14.91h-4.84V247.86a.23.23,0,0,0-.07-.14.19.19,0,0,0-.13-.08H229.59v-4.82Z"/><path d="M229.59,242.82v4.82h10.74a.19.19,0,0,1,.13.08.23.23,0,0,1,.07.14v14.67h4.84V242.82Z"/><path d="M280.24,242.82v4.82H269.52a.21.21,0,0,0-.14.08.23.23,0,0,0-.07.14v14.67h-4.83V242.82Z"/><path d="M314.24,242.88V257.5a.15.15,0,0,1-.06.14.17.17,0,0,1-.14.08h-10a.19.19,0,0,1-.13-.08.19.19,0,0,1-.07-.14V242.88H299v14.87a4.91,4.91,0,0,0,2.41,4.13,4.63,4.63,0,0,0,2.43.65h10.38v2.11a.15.15,0,0,1-.06.14.17.17,0,0,1-.14.08H302.22v4.85h12.07a4.75,4.75,0,0,0,4.79-4.78V242.88Z"/><path d="M319.08,242.88v26.83H302.22v-4.85H314a.17.17,0,0,0,.14-.08,15,15,0,0,0,.06-2.25H303.86a4.63,4.63,0,0,1-2.43-.65,4.91,4.91,0,0,1-2.41-4.13V242.88h4.84V257.5a.19.19,0,0,0,.07.14.19.19,0,0,0,.13.08h10a.17.17,0,0,0,.14-.08.15.15,0,0,0,.06-.14V242.88Z"/><path d="M213,245.69h0a.82.82,0,0,0-.82-.82h-2a2.25,2.25,0,0,1-1.61-.68h0a2.21,2.21,0,0,1-.68-1.61v-2a.82.82,0,0,0-.82-.82h0a.82.82,0,0,0-.82.82v2.15a.82.82,0,0,1-.82.82H205a.82.82,0,0,1-.82-.82v-2.15a.82.82,0,0,0-.82-.82h0a.82.82,0,0,0-.82.82v2.15a.82.82,0,0,1-.82.82h-.43a.82.82,0,0,1-.82-.82v-2.15a.82.82,0,0,0-.82-.82h0a.82.82,0,0,0-.82.82v2.15a.83.83,0,0,1-.83.82h-.42a.82.82,0,0,1-.82-.82v-2.15a.82.82,0,0,0-.82-.82h0a.82.82,0,0,0-.82.82v2.15a.83.83,0,0,1-.83.82h-.42a.82.82,0,0,1-.82-.82v-2.15a.82.82,0,0,0-.82-.82h0a.82.82,0,0,0-.82.82v2a2.25,2.25,0,0,1-.68,1.61v0a2.29,2.29,0,0,1-1.62.67h-1.62a.82.82,0,0,0-.82.82h0a.82.82,0,0,0,.82.82h1.81a.82.82,0,0,1,.82.82v.42a.82.82,0,0,1-.82.82h-1.81a.82.82,0,0,0-.82.82h0a.82.82,0,0,0,.82.82h1.81a.82.82,0,0,1,.82.82v.42a.82.82,0,0,1-.82.82h-1.81a.82.82,0,0,0-.82.82h0a.83.83,0,0,0,.82.83h1.81a.82.82,0,0,1,.82.82v.42a.82.82,0,0,1-.82.82h-1.81a.82.82,0,0,0-.82.82h0a.82.82,0,0,0,.82.82h1.81a.82.82,0,0,1,.82.82v.42a.82.82,0,0,1-.82.82h-1.81a.82.82,0,0,0-.82.82h0a.82.82,0,0,0,.82.82h1.62a2.29,2.29,0,0,1,1.62.67v0a2.25,2.25,0,0,1,.68,1.61v1.12a.82.82,0,0,0,.82.82h0a.82.82,0,0,0,.82-.82v-1.31a.82.82,0,0,1,.82-.82h.42a.83.83,0,0,1,.83.82v1.31a.82.82,0,0,0,.82.82h0a.82.82,0,0,0,.82-.82v-1.31a.82.82,0,0,1,.82-.82H198a.83.83,0,0,1,.83.82v1.31a.82.82,0,0,0,.82.82h0a.82.82,0,0,0,.82-.82v-1.31a.82.82,0,0,1,.82-.82h.43a.82.82,0,0,1,.82.82v1.31a.82.82,0,0,0,.82.82h0a.82.82,0,0,0,.82-.82v-1.31a.82.82,0,0,1,.82-.82h.43a.82.82,0,0,1,.82.82v1.31a.82.82,0,0,0,.82.82h0a.82.82,0,0,0,.82-.82v-1.12a2.21,2.21,0,0,1,.68-1.61h0a2.23,2.23,0,0,1,1.61-.68h2a.82.82,0,0,0,.82-.82h0a.82.82,0,0,0-.82-.82H210a.83.83,0,0,1-.83-.82v-.42a.82.82,0,0,1,.83-.82h2.2a.82.82,0,0,0,.82-.82h0a.82.82,0,0,0-.82-.82H210a.83.83,0,0,1-.83-.82v-.42a.82.82,0,0,1,.83-.82h2.2a.83.83,0,0,0,.82-.83h0a.82.82,0,0,0-.82-.82H210a.82.82,0,0,1-.83-.82V251a.83.83,0,0,1,.83-.82h2.2a.82.82,0,0,0,.82-.82h0a.82.82,0,0,0-.82-.82H210a.82.82,0,0,1-.83-.82v-.42a.83.83,0,0,1,.83-.82h2.2A.82.82,0,0,0,213,245.69Zm-9.29,13.16H195.9a2.3,2.3,0,0,1-2.29-2.29v-7.77a2.3,2.3,0,0,1,2.29-2.29h7.79a2.3,2.3,0,0,1,2.29,2.29v7.77A2.3,2.3,0,0,1,203.69,258.85Z"/><path class="cls-26" d="M192.68,221.36l-50.6-42.59a12.91,12.91,0,0,1-1.55-18.16c26.87-32.16,68.17-50.9,110-50.27a142,142,0,0,1,99.41,42.09l-8,9.41a12.89,12.89,0,0,1-18.15,1.54A116.41,116.41,0,0,0,190.23,152q-4.28,2.5-8.38,5.4a12.91,12.91,0,0,0-.9,20.44l66.87,56.3C226.61,234.12,210.25,236.09,192.68,221.36Z"/><path class="cls-26" d="M356,325.14a12.74,12.74,0,0,1,1.53,18c-2.83,3.34-5.79,6.52-8.83,9.55A142.17,142.17,0,0,1,148,351.38l7.95-9.4a12.9,12.9,0,0,1,18.16-1.53,116.37,116.37,0,0,0,133.59,11.42q4.29-2.5,8.41-5.42A12.91,12.91,0,0,0,317,326l-66.88-56.3h20.21a54.26,54.26,0,0,1,34.92,12.74Z"/><g class="cls-27"><rect class="cls-26" x="180.28" y="56.56" width="4.08" height="71.65" transform="translate(364.64 184.77) rotate(180)"/></g><g class="cls-28"><rect class="cls-26" x="193.4" y="72.12" width="4.08" height="55.36" transform="translate(390.87 199.6) rotate(180)"/></g><g class="cls-29"><rect class="cls-26" x="206.66" y="46.52" width="4.08" height="82.56" transform="translate(417.4 175.6) rotate(180)"/></g><g class="cls-30"><rect class="cls-26" x="220.5" y="64.85" width="4.08" height="65.83" transform="translate(445.09 195.53) rotate(180)"/></g><g class="cls-31"><rect class="cls-26" x="233.62" y="56.56" width="4.08" height="74.12" transform="translate(471.32 187.24) rotate(180)"/></g><g class="cls-32"><rect class="cls-26" x="246.96" y="77.21" width="4.08" height="53.47" transform="translate(498 207.89) rotate(180)"/></g><g class="cls-33"><rect class="cls-26" x="260.66" y="52.34" width="4.08" height="80.81" transform="translate(525.4 185.49) rotate(180)"/></g><g class="cls-34"><rect class="cls-26" x="274.21" y="65.72" width="4.08" height="69.9" transform="translate(552.51 201.35) rotate(180)"/></g><g class="cls-35"><rect class="cls-26" x="287.48" y="50.01" width="4.08" height="88.88" transform="translate(579.03 188.91) rotate(180)"/></g><g class="cls-36"><rect class="cls-26" x="300.74" y="63.1" width="4.08" height="76.81" transform="translate(605.56 203.02) rotate(180)"/></g><g class="cls-37"><rect class="cls-26" x="314" y="42.16" width="4.08" height="100.19" transform="translate(632.08 184.51) rotate(180)"/></g><g class="cls-38"><rect class="cls-26" x="314" y="373.36" width="4.08" height="71.65"/></g><g class="cls-39"><rect class="cls-26" x="300.88" y="374.09" width="4.08" height="55.36"/></g><g class="cls-40"><rect class="cls-26" x="287.62" y="372.49" width="4.08" height="82.56"/></g><g class="cls-41"><rect class="cls-26" x="273.78" y="370.89" width="4.08" height="65.83"/></g><g class="cls-42"><rect class="cls-26" x="260.66" y="370.89" width="4.08" height="74.12"/></g><g class="cls-43"><rect class="cls-26" x="247.32" y="370.89" width="4.08" height="53.47"/></g><g class="cls-44"><rect class="cls-26" x="233.62" y="368.41" width="4.08" height="80.81"/></g><g class="cls-45"><rect class="cls-26" x="220.07" y="365.94" width="4.08" height="69.9"/></g><g class="cls-46"><rect class="cls-26" x="206.8" y="362.67" width="4.08" height="88.88"/></g><g class="cls-47"><rect class="cls-26" x="193.54" y="361.65" width="4.08" height="76.81"/></g><g class="cls-48"><rect class="cls-26" x="180.28" y="359.22" width="4.08" height="100.19"/></g></svg>