<svg id="Layer_1" data-name="Layer 1" xmlns="http://www.w3.org/2000/svg" xmlns:xlink="http://www.w3.org/1999/xlink" viewBox="0 0 500 500"><defs><style>.cls-1{fill:url(#linear-gradient);}.cls-2{fill:url(#linear-gradient-2);}.cls-3{fill:url(#linear-gradient-3);}.cls-4{fill:url(#linear-gradient-4);}.cls-5{fill:url(#linear-gradient-5);}.cls-6{fill:url(#linear-gradient-6);}.cls-7{fill:url(#linear-gradient-7);}.cls-8{fill:url(#linear-gradient-8);}.cls-9{fill:url(#linear-gradient-9);}.cls-10{fill:url(#linear-gradient-10);}.cls-11{fill:url(#linear-gradient-11);}.cls-12{fill:url(#linear-gradient-12);}.cls-13{fill:url(#linear-gradient-13);}.cls-14{fill:url(#linear-gradient-14);}.cls-15{fill:url(#linear-gradient-15);}.cls-16{fill:url(#linear-gradient-16);}.cls-17{fill:url(#linear-gradient-17);}.cls-18{fill:url(#linear-gradient-18);}.cls-19{fill:url(#linear-gradient-19);}.cls-20{fill:url(#linear-gradient-20);}.cls-21{fill:url(#linear-gradient-21);}.cls-22{fill:url(#linear-gradient-22);}.cls-23{fill:#fff;}.cls-24{fill:#203669;}.cls-25{mask:url(#mask);}.cls-26{mask:url(#mask-2);}.cls-27{mask:url(#mask-3);}.cls-28{mask:url(#mask-4);}.cls-29{mask:url(#mask-5);}.cls-30{mask:url(#mask-6);}.cls-31{mask:url(#mask-7);}.cls-32{mask:url(#mask-8);}.cls-33{mask:url(#mask-9);}.cls-34{mask:url(#mask-10);}.cls-35{mask:url(#mask-11);}.cls-36{mask:url(#mask-12);}.cls-37{mask:url(#mask-13);}.cls-38{mask:url(#mask-14);}.cls-39{mask:url(#mask-15);}.cls-40{mask:url(#mask-16);}.cls-41{mask:url(#mask-17);}.cls-42{mask:url(#mask-18);}.cls-43{mask:url(#mask-19);}.cls-44{mask:url(#mask-20);}.cls-45{mask:url(#mask-21);}.cls-46{mask:url(#mask-22);}</style><linearGradient id="linear-gradient" x1="107.11" y1="135.32" x2="187" y2="135.32" gradientTransform="translate(28.75 -61.94)" gradientUnits="userSpaceOnUse"><stop offset="0" stop-color="#fff"/><stop offset="1"/></linearGradient><linearGradient id="linear-gradient-2" x1="107.92" y1="149.91" x2="169.65" y2="149.91" gradientTransform="translate(51.62 -68.26)" xlink:href="#linear-gradient"/><linearGradient id="linear-gradient-3" x1="91.34" y1="284.11" x2="203.05" y2="284.11" gradientTransform="translate(177.4 -210.87)" xlink:href="#linear-gradient"/><linearGradient id="linear-gradient-4" x1="-14.01" y1="-625.32" x2="65.88" y2="-625.32" gradientTransform="translate(298.66 1051.94)" xlink:href="#linear-gradient"/><linearGradient id="linear-gradient-5" x1="-13.2" y1="-610.72" x2="48.53" y2="-610.72" gradientTransform="translate(292.34 1029.07)" xlink:href="#linear-gradient"/><linearGradient id="linear-gradient-6" x1="-14.99" y1="-595.97" x2="77.07" y2="-595.97" gradientTransform="translate(264.2 1027.7)" xlink:href="#linear-gradient"/><linearGradient id="linear-gradient-7" x1="-16.77" y1="-580.56" x2="56.63" y2="-580.56" gradientTransform="translate(259.91 1001.18)" xlink:href="#linear-gradient"/><linearGradient id="linear-gradient-8" x1="-16.77" y1="-565.97" x2="65.88" y2="-565.97" gradientTransform="translate(240.69 991.21)" xlink:href="#linear-gradient"/><linearGradient id="linear-gradient-9" x1="-16.77" y1="-551.12" x2="42.85" y2="-551.12" gradientTransform="translate(237.36 964.85)" xlink:href="#linear-gradient"/><linearGradient id="linear-gradient-10" x1="-19.53" y1="-535.88" x2="70.58" y2="-535.88" gradientTransform="translate(209.63 962.1)" xlink:href="#linear-gradient"/><linearGradient id="linear-gradient-11" x1="-22.28" y1="-520.8" x2="55.66" y2="-520.8" gradientTransform="translate(203.39 938.18)" xlink:href="#linear-gradient"/><linearGradient id="linear-gradient-12" x1="-25.93" y1="-506.04" x2="73.18" y2="-506.04" gradientTransform="translate(181.7 930.35)" xlink:href="#linear-gradient"/><linearGradient id="linear-gradient-13" x1="106.14" y1="164.67" x2="198.19" y2="164.67" gradientTransform="translate(52.99 -96.4)" xlink:href="#linear-gradient"/><linearGradient id="linear-gradient-14" x1="-27.07" y1="-491.29" x2="58.58" y2="-491.29" gradientTransform="translate(174.8 907.73)" xlink:href="#linear-gradient"/><linearGradient id="linear-gradient-15" x1="-29.78" y1="-476.53" x2="81.93" y2="-476.53" gradientTransform="translate(149.73 903.29)" xlink:href="#linear-gradient"/><linearGradient id="linear-gradient-16" x1="104.35" y1="180.07" x2="177.76" y2="180.07" gradientTransform="translate(79.51 -100.7)" xlink:href="#linear-gradient"/><linearGradient id="linear-gradient-17" x1="104.35" y1="194.67" x2="187" y2="194.67" gradientTransform="translate(89.48 -119.91)" xlink:href="#linear-gradient"/><linearGradient id="linear-gradient-18" x1="104.35" y1="209.51" x2="163.97" y2="209.51" gradientTransform="translate(115.84 -123.24)" xlink:href="#linear-gradient"/><linearGradient id="linear-gradient-19" x1="101.59" y1="224.76" x2="191.7" y2="224.76" gradientTransform="translate(118.59 -150.97)" xlink:href="#linear-gradient"/><linearGradient id="linear-gradient-20" x1="98.84" y1="239.84" x2="176.78" y2="239.84" gradientTransform="translate(142.51 -157.22)" xlink:href="#linear-gradient"/><linearGradient id="linear-gradient-21" x1="95.19" y1="254.59" x2="194.3" y2="254.59" gradientTransform="translate(150.34 -178.91)" xlink:href="#linear-gradient"/><linearGradient id="linear-gradient-22" x1="94.05" y1="269.35" x2="179.7" y2="269.35" gradientTransform="translate(172.96 -185.8)" xlink:href="#linear-gradient"/><mask id="mask" x="173.29" y="33.43" width="5.03" height="79.89" maskUnits="userSpaceOnUse"><rect class="cls-1" x="135.86" y="70.86" width="79.89" height="5.03" transform="translate(102.43 249.18) rotate(-90)"/></mask><mask id="mask-2" x="187.89" y="50.78" width="5.03" height="61.73" maskUnits="userSpaceOnUse"><rect class="cls-2" x="159.53" y="79.14" width="61.73" height="5.03" transform="translate(108.75 272.05) rotate(-90)"/></mask><mask id="mask-3" x="202.64" y="22.24" width="5.03" height="92.05" maskUnits="userSpaceOnUse"><rect class="cls-13" x="159.13" y="65.76" width="92.05" height="5.03" transform="translate(136.89 273.43) rotate(-90)"/></mask><mask id="mask-4" x="218.05" y="42.68" width="5.03" height="73.41" maskUnits="userSpaceOnUse"><rect class="cls-16" x="183.86" y="76.86" width="73.41" height="5.03" transform="translate(141.18 299.94) rotate(-90)"/></mask><mask id="mask-5" x="232.64" y="33.43" width="5.03" height="82.65" maskUnits="userSpaceOnUse"><rect class="cls-17" x="193.83" y="72.24" width="82.65" height="5.03" transform="translate(160.4 309.91) rotate(-90)"/></mask><mask id="mask-6" x="247.49" y="56.46" width="5.03" height="59.62" maskUnits="userSpaceOnUse"><rect class="cls-18" x="220.19" y="83.76" width="59.62" height="5.03" transform="translate(163.73 336.27) rotate(-90)"/></mask><mask id="mask-7" x="262.73" y="28.73" width="5.03" height="90.11" maskUnits="userSpaceOnUse"><rect class="cls-19" x="220.19" y="71.27" width="90.11" height="5.03" transform="translate(191.46 339.03) rotate(-90)"/></mask><mask id="mask-8" x="277.81" y="43.65" width="5.03" height="77.95" maskUnits="userSpaceOnUse"><rect class="cls-20" x="241.35" y="80.11" width="77.95" height="5.03" transform="translate(197.7 362.95) rotate(-90)"/></mask><mask id="mask-9" x="292.57" y="26.14" width="5.03" height="99.11" maskUnits="userSpaceOnUse"><rect class="cls-21" x="245.53" y="73.18" width="99.11" height="5.03" transform="translate(219.39 370.77) rotate(-90)"/></mask><mask id="mask-10" x="307.32" y="40.73" width="5.03" height="85.65" maskUnits="userSpaceOnUse"><rect class="cls-22" x="267.01" y="81.04" width="85.65" height="5.03" transform="translate(226.28 393.39) rotate(-90)"/></mask><mask id="mask-11" x="322.08" y="17.38" width="5.03" height="111.72" maskUnits="userSpaceOnUse"><rect class="cls-3" x="268.74" y="70.72" width="111.72" height="5.03" transform="translate(251.36 397.83) rotate(-90)"/></mask><mask id="mask-12" x="322.08" y="386.68" width="5.03" height="79.89" maskUnits="userSpaceOnUse"><rect class="cls-4" x="284.65" y="424.11" width="79.89" height="5.03" transform="translate(751.22 102.03) rotate(90)"/></mask><mask id="mask-13" x="307.49" y="387.49" width="5.03" height="61.73" maskUnits="userSpaceOnUse"><rect class="cls-5" x="279.14" y="415.84" width="61.73" height="5.03" transform="translate(728.35 108.35) rotate(90)"/></mask><mask id="mask-14" x="292.73" y="385.7" width="5.03" height="92.05" maskUnits="userSpaceOnUse"><rect class="cls-6" x="249.22" y="429.22" width="92.05" height="5.03" transform="translate(726.97 136.49) rotate(90)"/></mask><mask id="mask-15" x="277.32" y="383.92" width="5.03" height="73.41" maskUnits="userSpaceOnUse"><rect class="cls-7" x="243.14" y="418.11" width="73.41" height="5.03" transform="translate(700.46 140.78) rotate(90)"/></mask><mask id="mask-16" x="262.73" y="383.92" width="5.03" height="82.65" maskUnits="userSpaceOnUse"><rect class="cls-8" x="223.92" y="422.73" width="82.65" height="5.03" transform="translate(690.49 160) rotate(90)"/></mask><mask id="mask-17" x="247.89" y="383.92" width="5.03" height="59.62" maskUnits="userSpaceOnUse"><rect class="cls-9" x="220.59" y="411.22" width="59.62" height="5.03" transform="translate(664.13 163.33) rotate(90)"/></mask><mask id="mask-18" x="232.64" y="381.16" width="5.03" height="90.11" maskUnits="userSpaceOnUse"><rect class="cls-10" x="190.1" y="423.7" width="90.11" height="5.03" transform="translate(661.37 191.06) rotate(90)"/></mask><mask id="mask-19" x="217.56" y="378.41" width="5.03" height="77.95" maskUnits="userSpaceOnUse"><rect class="cls-11" x="181.1" y="414.86" width="77.95" height="5.03" transform="translate(637.45 197.3) rotate(90)"/></mask><mask id="mask-20" x="202.8" y="374.76" width="5.03" height="99.11" maskUnits="userSpaceOnUse"><rect class="cls-12" x="155.76" y="421.8" width="99.11" height="5.03" transform="translate(629.63 218.99) rotate(90)"/></mask><mask id="mask-21" x="188.05" y="373.62" width="5.03" height="85.65" maskUnits="userSpaceOnUse"><rect class="cls-14" x="147.74" y="413.93" width="85.65" height="5.03" transform="translate(607.01 225.88) rotate(90)"/></mask><mask id="mask-22" x="173.29" y="370.91" width="5.03" height="111.72" maskUnits="userSpaceOnUse"><rect class="cls-15" x="119.95" y="424.25" width="111.72" height="5.03" transform="translate(602.57 250.96) rotate(90)"/></mask></defs><path class="cls-23" d="M272.6,241.12a5.47,5.47,0,0,0-5.38,5.35V263.1h5.38V246.74a.32.32,0,0,1,.23-.24h11.93v-5.38Z"/><path class="cls-23" d="M162.1,246.5v-5.38h-8.38v-6.63h-5.39v23.27a5.47,5.47,0,0,0,2.69,4.61,5.14,5.14,0,0,0,2.7.73h8.38v-5.37H154a.22.22,0,0,1-.16-.09.21.21,0,0,1-.07-.15v-11Z"/><path class="cls-23" d="M153.72,246.5v11a.21.21,0,0,0,.07.15.22.22,0,0,0,.16.09h8.15v5.37H148.33V234.49h5.39v6.63h8.38v5.38Z"/><path class="cls-23" d="M240.57,241.12a5.48,5.48,0,0,1,5.39,5.35V263.1h-5.39V246.74a.21.21,0,0,0-.07-.15.22.22,0,0,0-.15-.09H228.4v-5.38Z"/><path class="cls-23" d="M228.4,241.12v5.38h11.95a.22.22,0,0,1,.15.09.21.21,0,0,1,.07.15V263.1H246v-22Z"/><path class="cls-23" d="M284.76,241.12v5.38H272.83a.32.32,0,0,0-.23.24V263.1h-5.38v-22Z"/><path class="cls-23" d="M322.6,241.19v16.3a.17.17,0,0,1-.08.15.19.19,0,0,1-.15.09h-11.1a.32.32,0,0,1-.23-.24v-16.3h-5.38v16.57a5.44,5.44,0,0,0,2.68,4.61,5.14,5.14,0,0,0,2.7.73H322.6v2.35a.17.17,0,0,1-.08.15c0,.07-.09.1-.15.1H309.22v5.41h13.42a5.31,5.31,0,0,0,5.34-5.34V241.19Z"/><path class="cls-23" d="M328,241.19v29.92H309.22V265.7h13.15c.06,0,.1,0,.15-.1a16.9,16.9,0,0,0,.08-2.5H311a5.14,5.14,0,0,1-2.7-.73,5.44,5.44,0,0,1-2.68-4.61V241.19H311v16.3a.32.32,0,0,0,.23.24h11.1a.19.19,0,0,0,.15-.09.17.17,0,0,0,.08-.15v-16.3Z"/><path class="cls-23" d="M209.92,244.32h0a.92.92,0,0,0-.92-.91h-2.23a2.53,2.53,0,0,1-1.8-.76h0a2.53,2.53,0,0,1-.75-1.8v-2.18a.92.92,0,0,0-.91-.92h0a.92.92,0,0,0-.92.92v2.39a.92.92,0,0,1-.91.92H201a.92.92,0,0,1-.92-.92v-2.39a.92.92,0,0,0-.91-.92h0a.91.91,0,0,0-.91.92v2.39a.92.92,0,0,1-.92.92h-.47a.92.92,0,0,1-.91-.92v-2.39a.92.92,0,0,0-.92-.92h0a.92.92,0,0,0-.91.92v2.39a.92.92,0,0,1-.92.92h-.47a.92.92,0,0,1-.91-.92v-2.39a.92.92,0,0,0-.92-.92h0a.92.92,0,0,0-.91.92v2.39a.92.92,0,0,1-.92.92h-.47a.92.92,0,0,1-.91-.92v-2.39a.92.92,0,0,0-.92-.92h0a.92.92,0,0,0-.91.92v2.18a2.54,2.54,0,0,1-.75,1.8h0a2.52,2.52,0,0,1-1.79.76h-1.8a.92.92,0,0,0-.92.91h0a.92.92,0,0,0,.92.92h2a.91.91,0,0,1,.92.91v.47a.92.92,0,0,1-.92.91h-2a.92.92,0,0,0-.92.92h0a.92.92,0,0,0,.92.91h2a.92.92,0,0,1,.92.92v.47a.92.92,0,0,1-.92.91h-2a.92.92,0,0,0-.92.92h0a.92.92,0,0,0,.92.91h2a.92.92,0,0,1,.92.92v.47a.92.92,0,0,1-.92.91h-2a.92.92,0,0,0-.92.92h0a.92.92,0,0,0,.92.91h2a.92.92,0,0,1,.92.91V259a.92.92,0,0,1-.92.92h-2a.92.92,0,0,0-.92.91h0a.92.92,0,0,0,.92.92h1.8a2.51,2.51,0,0,1,1.79.75h0a2.55,2.55,0,0,1,.75,1.8v1.25a.91.91,0,0,0,.91.91h0a.92.92,0,0,0,.92-.91V264.1a.91.91,0,0,1,.91-.91h.47a.92.92,0,0,1,.92.91v1.46a.91.91,0,0,0,.91.91h0a.92.92,0,0,0,.92-.91V264.1a.91.91,0,0,1,.91-.91h.47a.92.92,0,0,1,.92.91v1.46a.91.91,0,0,0,.91.91h0a.92.92,0,0,0,.92-.91V264.1a.91.91,0,0,1,.91-.91h.47a.92.92,0,0,1,.92.91v1.46a.91.91,0,0,0,.91.91h0a.91.91,0,0,0,.91-.91V264.1a.92.92,0,0,1,.92-.91h.47a.91.91,0,0,1,.91.91v1.46a.92.92,0,0,0,.92.91h0a.91.91,0,0,0,.91-.91v-1.25a2.55,2.55,0,0,1,.75-1.8h0a2.51,2.51,0,0,1,1.79-.75H209a.92.92,0,0,0,.92-.92h0a.92.92,0,0,0-.92-.91h-2.44a.92.92,0,0,1-.92-.92v-.47a.92.92,0,0,1,.92-.91H209a.92.92,0,0,0,.92-.91h0a.92.92,0,0,0-.92-.92h-2.44a.92.92,0,0,1-.92-.91v-.47a.92.92,0,0,1,.92-.92H209a.92.92,0,0,0,.92-.91h0a.92.92,0,0,0-.92-.92h-2.44a.92.92,0,0,1-.92-.91v-.47a.92.92,0,0,1,.92-.92H209a.92.92,0,0,0,.92-.91h0a.92.92,0,0,0-.92-.92h-2.44a.92.92,0,0,1-.92-.91v-.47a.91.91,0,0,1,.92-.91H209A.92.92,0,0,0,209.92,244.32ZM199.58,259h-8.66a2.55,2.55,0,0,1-2.55-2.55v-8.66a2.55,2.55,0,0,1,2.55-2.55h8.66a2.55,2.55,0,0,1,2.55,2.55v8.66A2.55,2.55,0,0,1,199.58,259Z"/><path class="cls-24" d="M187.33,217.2,131,169.7a14.42,14.42,0,0,1-1.73-20.25c29.9-35.85,75.86-56.75,122.39-56A157.86,157.86,0,0,1,362.3,140.34l-8.85,10.49a14.33,14.33,0,0,1-20.2,1.71,129.28,129.28,0,0,0-148.64-12.73q-4.77,2.79-9.32,6a14.42,14.42,0,0,0-1,22.79l74.4,62.78C225.09,231.42,206.89,233.62,187.33,217.2Z"/><path class="cls-24" d="M369,332.91a14.23,14.23,0,0,1,1.71,20c-3.16,3.73-6.45,7.27-9.83,10.66a158,158,0,0,1-223.28-1.43l8.84-10.48a14.32,14.32,0,0,1,20.21-1.7A129.26,129.26,0,0,0,315.3,362.71q4.79-2.79,9.35-6a14.42,14.42,0,0,0,1-22.79l-74.42-62.77h22.49a60.28,60.28,0,0,1,38.86,14.2Z"/><g class="cls-25"><rect class="cls-24" x="173.53" y="33.43" width="4.54" height="79.89" transform="translate(351.61 146.76) rotate(180)"/></g><g class="cls-26"><rect class="cls-24" x="188.13" y="50.78" width="4.54" height="61.73" transform="translate(380.8 163.3) rotate(180)"/></g><g class="cls-27"><rect class="cls-24" x="202.89" y="22.24" width="4.54" height="92.05" transform="translate(410.31 136.54) rotate(180)"/></g><g class="cls-28"><rect class="cls-24" x="218.29" y="42.68" width="4.54" height="73.41" transform="translate(441.12 158.76) rotate(180)"/></g><g class="cls-29"><rect class="cls-24" x="232.89" y="33.43" width="4.54" height="82.65" transform="translate(470.31 149.51) rotate(180)"/></g><g class="cls-30"><rect class="cls-24" x="247.73" y="56.46" width="4.54" height="59.62" transform="translate(500 172.54) rotate(180)"/></g><g class="cls-31"><rect class="cls-24" x="262.97" y="28.73" width="4.54" height="90.11" transform="translate(530.49 147.57) rotate(180)"/></g><g class="cls-32"><rect class="cls-24" x="278.05" y="43.65" width="4.54" height="77.95" transform="translate(560.65 165.24) rotate(180)"/></g><g class="cls-33"><rect class="cls-24" x="292.81" y="26.14" width="4.54" height="99.11" transform="translate(590.16 151.38) rotate(180)"/></g><g class="cls-34"><rect class="cls-24" x="307.57" y="40.73" width="4.54" height="85.65" transform="translate(619.68 167.11) rotate(180)"/></g><g class="cls-35"><rect class="cls-24" x="322.32" y="17.38" width="4.54" height="111.72" transform="translate(649.19 146.47) rotate(180)"/></g><g class="cls-36"><rect class="cls-24" x="322.32" y="386.68" width="4.54" height="79.89"/></g><g class="cls-37"><rect class="cls-24" x="307.73" y="387.49" width="4.54" height="61.73"/></g><g class="cls-38"><rect class="cls-24" x="292.97" y="385.7" width="4.54" height="92.05"/></g><g class="cls-39"><rect class="cls-24" x="277.57" y="383.92" width="4.54" height="73.41"/></g><g class="cls-40"><rect class="cls-24" x="262.97" y="383.92" width="4.54" height="82.65"/></g><g class="cls-41"><rect class="cls-24" x="248.13" y="383.92" width="4.54" height="59.62"/></g><g class="cls-42"><rect class="cls-24" x="232.89" y="381.16" width="4.54" height="90.11"/></g><g class="cls-43"><rect class="cls-24" x="217.8" y="378.41" width="4.54" height="77.95"/></g><g class="cls-44"><rect class="cls-24" x="203.05" y="374.76" width="4.54" height="99.11"/></g><g class="cls-45"><rect class="cls-24" x="188.29" y="373.62" width="4.54" height="85.65"/></g><g class="cls-46"><rect class="cls-24" x="173.53" y="370.91" width="4.54" height="111.72"/></g></svg>